<mxfile host="app.diagrams.net" modified="2023-06-02T07:58:16.870Z" agent="Mozilla/5.0 (Windows NT 10.0; Win64; x64) AppleWebKit/537.36 (KHTML, like Gecko) Chrome/113.0.0.0 Safari/537.36" etag="OEYTtJS315UX5N3h8m47" version="21.3.7" type="device">
  <diagram name="Page-1" id="R5yqif52rX2Gy5oui7s9">
    <mxGraphModel dx="1050" dy="581" grid="1" gridSize="10" guides="1" tooltips="1" connect="1" arrows="1" fold="1" page="1" pageScale="1" pageWidth="850" pageHeight="1100" math="0" shadow="0">
      <root>
        <mxCell id="0" />
        <mxCell id="1" parent="0" />
        <mxCell id="AAOTFsrDIz39ucT1Op2p-22" style="edgeStyle=orthogonalEdgeStyle;rounded=0;orthogonalLoop=1;jettySize=auto;html=1;exitX=0.5;exitY=1;exitDx=0;exitDy=0;entryX=0.25;entryY=0;entryDx=0;entryDy=0;" parent="1" source="AAOTFsrDIz39ucT1Op2p-13" target="AAOTFsrDIz39ucT1Op2p-21" edge="1">
          <mxGeometry relative="1" as="geometry" />
        </mxCell>
        <mxCell id="AAOTFsrDIz39ucT1Op2p-13" value="user" style="rounded=1;whiteSpace=wrap;html=1;" parent="1" vertex="1">
          <mxGeometry x="125" y="70" width="120" height="60" as="geometry" />
        </mxCell>
        <mxCell id="AAOTFsrDIz39ucT1Op2p-24" style="edgeStyle=orthogonalEdgeStyle;rounded=0;orthogonalLoop=1;jettySize=auto;html=1;exitX=0.5;exitY=1;exitDx=0;exitDy=0;entryX=0.25;entryY=0;entryDx=0;entryDy=0;" parent="1" source="AAOTFsrDIz39ucT1Op2p-14" target="AAOTFsrDIz39ucT1Op2p-23" edge="1">
          <mxGeometry relative="1" as="geometry" />
        </mxCell>
        <mxCell id="AAOTFsrDIz39ucT1Op2p-14" value="course" style="rounded=1;whiteSpace=wrap;html=1;" parent="1" vertex="1">
          <mxGeometry x="285" y="70" width="120" height="60" as="geometry" />
        </mxCell>
        <mxCell id="AAOTFsrDIz39ucT1Op2p-26" style="edgeStyle=orthogonalEdgeStyle;rounded=0;orthogonalLoop=1;jettySize=auto;html=1;exitX=0.5;exitY=1;exitDx=0;exitDy=0;" parent="1" source="AAOTFsrDIz39ucT1Op2p-15" target="AAOTFsrDIz39ucT1Op2p-25" edge="1">
          <mxGeometry relative="1" as="geometry" />
        </mxCell>
        <mxCell id="AAOTFsrDIz39ucT1Op2p-15" value="blog" style="rounded=1;whiteSpace=wrap;html=1;" parent="1" vertex="1">
          <mxGeometry x="445" y="70" width="120" height="60" as="geometry" />
        </mxCell>
        <mxCell id="AAOTFsrDIz39ucT1Op2p-36" style="edgeStyle=orthogonalEdgeStyle;rounded=0;orthogonalLoop=1;jettySize=auto;html=1;exitX=0.5;exitY=1;exitDx=0;exitDy=0;entryX=0.75;entryY=0;entryDx=0;entryDy=0;" parent="1" source="AAOTFsrDIz39ucT1Op2p-16" target="AAOTFsrDIz39ucT1Op2p-35" edge="1">
          <mxGeometry relative="1" as="geometry" />
        </mxCell>
        <mxCell id="AAOTFsrDIz39ucT1Op2p-16" value="articles" style="rounded=1;whiteSpace=wrap;html=1;" parent="1" vertex="1">
          <mxGeometry x="605" y="70" width="120" height="60" as="geometry" />
        </mxCell>
        <mxCell id="AAOTFsrDIz39ucT1Op2p-21" value="Id, username,email,password,role" style="rounded=0;whiteSpace=wrap;html=1;" parent="1" vertex="1">
          <mxGeometry x="70" y="190" width="200" height="100" as="geometry" />
        </mxCell>
        <mxCell id="AAOTFsrDIz39ucT1Op2p-23" value="id, name, description,price,category_id" style="rounded=0;whiteSpace=wrap;html=1;" parent="1" vertex="1">
          <mxGeometry x="235" y="300" width="220" height="110" as="geometry" />
        </mxCell>
        <mxCell id="AAOTFsrDIz39ucT1Op2p-25" value="id,title,description,image,comment&amp;nbsp;" style="rounded=0;whiteSpace=wrap;html=1;" parent="1" vertex="1">
          <mxGeometry x="395" y="170" width="220" height="110" as="geometry" />
        </mxCell>
        <mxCell id="AAOTFsrDIz39ucT1Op2p-35" value="id, title, image, description" style="rounded=0;whiteSpace=wrap;html=1;" parent="1" vertex="1">
          <mxGeometry x="580" y="300" width="201.67" height="110" as="geometry" />
        </mxCell>
        <mxCell id="3blhliKnB9hbtJyG72MQ-2" style="edgeStyle=orthogonalEdgeStyle;rounded=0;orthogonalLoop=1;jettySize=auto;html=1;exitX=0.5;exitY=1;exitDx=0;exitDy=0;" parent="1" source="3blhliKnB9hbtJyG72MQ-1" target="3blhliKnB9hbtJyG72MQ-3" edge="1">
          <mxGeometry relative="1" as="geometry">
            <mxPoint x="410" y="590" as="targetPoint" />
          </mxGeometry>
        </mxCell>
        <mxCell id="3blhliKnB9hbtJyG72MQ-1" value="course_category" style="rounded=1;whiteSpace=wrap;html=1;" parent="1" vertex="1">
          <mxGeometry x="350" y="480" width="120" height="60" as="geometry" />
        </mxCell>
        <mxCell id="3blhliKnB9hbtJyG72MQ-3" value="id, category_name" style="rounded=0;whiteSpace=wrap;html=1;" parent="1" vertex="1">
          <mxGeometry x="350" y="590" width="120" height="60" as="geometry" />
        </mxCell>
        <mxCell id="RlPnkMRdZwOKqR2YGrPy-5" style="edgeStyle=orthogonalEdgeStyle;rounded=0;orthogonalLoop=1;jettySize=auto;html=1;exitX=0.5;exitY=1;exitDx=0;exitDy=0;" edge="1" parent="1" source="RlPnkMRdZwOKqR2YGrPy-2" target="RlPnkMRdZwOKqR2YGrPy-8">
          <mxGeometry relative="1" as="geometry">
            <mxPoint x="90" y="450" as="targetPoint" />
          </mxGeometry>
        </mxCell>
        <mxCell id="RlPnkMRdZwOKqR2YGrPy-2" value="user_courses" style="rounded=1;whiteSpace=wrap;html=1;" vertex="1" parent="1">
          <mxGeometry x="40" y="310" width="120" height="60" as="geometry" />
        </mxCell>
        <mxCell id="RlPnkMRdZwOKqR2YGrPy-8" value="id, course_name, username,&amp;nbsp;" style="rounded=0;whiteSpace=wrap;html=1;" vertex="1" parent="1">
          <mxGeometry x="30" y="420" width="120" height="60" as="geometry" />
        </mxCell>
        <mxCell id="RlPnkMRdZwOKqR2YGrPy-10" style="edgeStyle=orthogonalEdgeStyle;rounded=0;orthogonalLoop=1;jettySize=auto;html=1;exitX=0.5;exitY=1;exitDx=0;exitDy=0;" edge="1" parent="1" source="RlPnkMRdZwOKqR2YGrPy-9" target="RlPnkMRdZwOKqR2YGrPy-11">
          <mxGeometry relative="1" as="geometry">
            <mxPoint x="150" y="630" as="targetPoint" />
          </mxGeometry>
        </mxCell>
        <mxCell id="RlPnkMRdZwOKqR2YGrPy-9" value="course_order" style="rounded=1;whiteSpace=wrap;html=1;" vertex="1" parent="1">
          <mxGeometry x="170" y="450" width="120" height="60" as="geometry" />
        </mxCell>
        <mxCell id="RlPnkMRdZwOKqR2YGrPy-11" value="id, username, requested_course, image, permission" style="rounded=0;whiteSpace=wrap;html=1;" vertex="1" parent="1">
          <mxGeometry x="90" y="600" width="120" height="60" as="geometry" />
        </mxCell>
      </root>
    </mxGraphModel>
  </diagram>
</mxfile>
